<?xml version="1.0" encoding="UTF-8"?>
<!-- Generated by Pixelmator Pro 3.3.8 -->
<svg width="1000" height="1000" viewBox="0 0 1000 1000" xmlns="http://www.w3.org/2000/svg">
    <path id="svg-path" fill="#000000" stroke="none" d="M 495.320343 381.308716 C 478.864777 410.332153 445.65033 425.045593 413.875214 417.386841 L 58.239902 331.691956 C 49.727715 329.641296 45.308472 341.782776 53.146458 345.686035 L 380.663452 508.635345 C 409.926666 523.195618 425.913391 555.814819 419.862732 588.62677 L 379.090424 809.692261 C 377.567688 817.948608 388.491577 821.948059 392.659241 814.657227 L 504.356445 619.125366 C 520.855896 590.24231 553.978088 575.631958 585.658264 583.259094 L 940.61908 668.699707 C 949.130493 670.74707 953.548645 658.608154 945.712524 654.705566 L 618.876587 491.992462 C 589.706482 477.468994 573.724243 444.987793 579.650879 412.255676 L 619.770935 190.672913 C 621.264771 182.408997 610.326538 178.448914 606.185242 185.754333 L 495.320343 381.308716 Z"/>
</svg>
